<svg width="24" height="24" viewBox="0 0 24 24" fill="none" xmlns="http://www.w3.org/2000/svg">
<g id="language">
<mask id="mask0_1771_1201" style="mask-type:alpha" maskUnits="userSpaceOnUse" x="0" y="0" width="24" height="24">
<rect id="Bounding box" width="24" height="24" fill="#D9D9D9"/>
</mask>
<g mask="url(#mask0_1771_1201)">
<path id="language_2" d="M12 21.5C10.6974 21.5 9.46827 21.2503 8.31252 20.7509C7.15676 20.2516 6.14874 19.5718 5.28847 18.7115C4.42822 17.8512 3.74842 16.8432 3.24907 15.6875C2.74971 14.5317 2.50002 13.3025 2.50002 12C2.50002 10.6872 2.74971 9.45543 3.24907 8.3048C3.74842 7.15417 4.42822 6.14872 5.28847 5.28845C6.14874 4.4282 7.15676 3.7484 8.31252 3.24905C9.46827 2.74968 10.6974 2.5 12 2.5C13.3128 2.5 14.5445 2.74968 15.6952 3.24905C16.8458 3.7484 17.8513 4.4282 18.7115 5.28845C19.5718 6.14872 20.2516 7.15417 20.7509 8.3048C21.2503 9.45543 21.5 10.6872 21.5 12C21.5 13.3025 21.2503 14.5317 20.7509 15.6875C20.2516 16.8432 19.5718 17.8512 18.7115 18.7115C17.8513 19.5718 16.8458 20.2516 15.6952 20.7509C14.5445 21.2503 13.3128 21.5 12 21.5ZM12 19.9788C12.5103 19.3019 12.9398 18.6192 13.2885 17.9307C13.6372 17.2423 13.9212 16.4897 14.1404 15.673H9.8596C10.0916 16.5153 10.3788 17.2807 10.7211 17.9692C11.0634 18.6577 11.4897 19.3275 12 19.9788ZM10.0635 19.7038C9.68017 19.1538 9.33593 18.5285 9.0308 17.8279C8.72566 17.1272 8.48848 16.4089 8.31925 15.673H4.9269C5.45511 16.7115 6.16346 17.584 7.05192 18.2904C7.94041 18.9968 8.94427 19.4679 10.0635 19.7038ZM13.9365 19.7038C15.0557 19.4679 16.0596 18.9968 16.9481 18.2904C17.8365 17.584 18.5449 16.7115 19.0731 15.673H15.6807C15.4795 16.4153 15.2263 17.1368 14.9211 17.8375C14.616 18.5381 14.2878 19.1602 13.9365 19.7038ZM4.29807 14.1731H8.0154C7.95258 13.8013 7.90707 13.4369 7.87887 13.0798C7.85067 12.7227 7.83657 12.3628 7.83657 12C7.83657 11.6372 7.85067 11.2772 7.87887 10.9202C7.90707 10.5631 7.95258 10.1987 8.0154 9.82688H4.29807C4.20192 10.1666 4.12821 10.5198 4.07692 10.8865C4.02564 11.2532 4 11.6243 4 12C4 12.3756 4.02564 12.7468 4.07692 13.1135C4.12821 13.4801 4.20192 13.8333 4.29807 14.1731ZM9.51537 14.1731H14.4846C14.5474 13.8013 14.593 13.4401 14.6212 13.0894C14.6494 12.7388 14.6635 12.3756 14.6635 12C14.6635 11.6243 14.6494 11.2612 14.6212 10.9106C14.593 10.5599 14.5474 10.1987 14.4846 9.82688H9.51537C9.45256 10.1987 9.40704 10.5599 9.37882 10.9106C9.35062 11.2612 9.33652 11.6243 9.33652 12C9.33652 12.3756 9.35062 12.7388 9.37882 13.0894C9.40704 13.4401 9.45256 13.8013 9.51537 14.1731ZM15.9846 14.1731H19.7019C19.7981 13.8333 19.8718 13.4801 19.9231 13.1135C19.9744 12.7468 20 12.3756 20 12C20 11.6243 19.9744 11.2532 19.9231 10.8865C19.8718 10.5198 19.7981 10.1666 19.7019 9.82688H15.9846C16.0474 10.1987 16.0929 10.5631 16.1211 10.9202C16.1493 11.2772 16.1634 11.6372 16.1634 12C16.1634 12.3628 16.1493 12.7227 16.1211 13.0798C16.0929 13.4369 16.0474 13.8013 15.9846 14.1731ZM15.6807 8.32693H19.0731C18.5385 7.27563 17.8349 6.40318 16.9625 5.70958C16.09 5.01599 15.0814 4.54163 13.9365 4.2865C14.3198 4.86855 14.6609 5.50509 14.9596 6.19613C15.2583 6.88716 15.4987 7.59743 15.6807 8.32693ZM9.8596 8.32693H14.1404C13.9083 7.49103 13.6164 6.72083 13.2644 6.01633C12.9125 5.31184 12.491 4.64678 12 4.02113C11.509 4.64678 11.0875 5.31184 10.7356 6.01633C10.3836 6.72083 10.0916 7.49103 9.8596 8.32693ZM4.9269 8.32693H8.31925C8.5013 7.59743 8.74169 6.88716 9.04042 6.19613C9.33914 5.50509 9.68017 4.86855 10.0635 4.2865C8.91222 4.54163 7.90195 5.0176 7.0327 5.7144C6.16347 6.4112 5.46153 7.28204 4.9269 8.32693Z" fill="white"/>
</g>
</g>
</svg>
