<svg xmlns="http://www.w3.org/2000/svg" width="24" height="22" fill="none" viewBox="0 0 24 22" data-testid="icon-buddy"><path fill="#fdfdfd" fill-rule="evenodd" d="M22.362.827C21.72.5 20.88.5 19.2.5H3.3C1.755.5.983.5.575.819A1.5 1.5 0 000 1.969c-.01.517.453 1.135 1.38 2.371l1.14 1.52c.178.237.267.356.33.487a1.5 1.5 0 01.122.365C3 6.855 3 7.003 3 7.3v9.4c0 1.68 0 2.52.327 3.162a3 3 0 001.311 1.311c.642.327 1.482.327 3.162.327h11.4c1.68 0 2.52 0 3.162-.327a3 3 0 001.311-1.311C24 19.22 24 18.38 24 16.7V5.3c0-1.68 0-2.52-.327-3.162a3 3 0 00-1.31-1.311zM9.277 11.937a1.125 1.125 0 00-1.948 1.126 7.123 7.123 0 006.171 3.562 7.123 7.123 0 006.171-3.562 1.125 1.125 0 10-1.947-1.126 4.872 4.872 0 01-4.224 2.438 4.873 4.873 0 01-4.223-2.438zM10.5 8a1.5 1.5 0 11-3 0 1.5 1.5 0 013 0zM18 9.5a1.5 1.5 0 100-3 1.5 1.5 0 000 3z" clip-rule="evenodd"></path></svg>