<svg width="160" height="37" viewBox="0 0 160 37" fill="none" xmlns="http://www.w3.org/2000/svg">
<g id="Logo - SKF" clip-path="url(#clip0_1113_21829)">
<path id="Vector" d="M154.266 31.6531V30.2314H155.238C155.725 30.2314 156.262 30.3311 156.262 30.9048C156.262 31.6032 155.725 31.6531 155.11 31.6531M154.266 32.2268H155.085L156.314 34.1973H157.107L155.776 32.2019C156.467 32.127 157.005 31.7529 157.005 30.9547C157.005 30.0568 156.442 29.6577 155.341 29.6577H153.549V34.2223H154.266V32.2268ZM155.085 36.4173C157.619 36.4173 159.77 34.5216 159.77 31.9275C159.77 29.3583 157.619 27.4626 155.085 27.4626C152.525 27.4626 150.374 29.3583 150.374 31.9275C150.374 34.5216 152.55 36.4173 155.085 36.4173ZM151.322 31.9275C151.322 29.8073 152.986 28.2109 155.085 28.2109C157.184 28.2109 158.848 29.8073 158.848 31.9275C158.848 34.0976 157.184 35.669 155.085 35.669C152.96 35.669 151.322 34.0726 151.322 31.9275Z" fill="white"/>
<path id="Vector_2" d="M45.6704 36.4172C46.4384 36.4172 47.0784 35.8186 47.0784 35.0453V15.0408C47.0784 14.2925 46.4384 13.6689 45.6704 13.6689H19.84C19.328 13.6689 18.8928 13.2698 18.8928 12.7709V5.48749C18.8928 4.98862 19.3024 4.58953 19.84 4.58953H27.3408C27.8528 4.58953 28.288 4.98862 28.288 5.48749V7.75733C28.288 8.50563 28.928 9.12921 29.696 9.12921H40.96C41.728 9.12921 42.368 8.53057 42.368 7.75733V1.39678C42.368 0.648485 41.728 0.0249023 40.96 0.0249023H6.22079C5.45279 0.0249023 4.81279 0.623542 4.81279 1.39678V16.8616C4.81279 17.6099 5.45279 18.2335 6.22079 18.2335H32.0512C32.5632 18.2335 32.9984 18.6326 32.9984 19.1564V30.9796C32.9984 31.4784 32.5888 31.8775 32.0512 31.8775H15.1552C14.6432 31.8775 14.208 31.4784 14.208 30.9796V24.17C14.208 23.4217 13.568 22.7981 12.8 22.7981H1.53599C0.767991 22.7981 0.127991 23.3968 0.127991 24.17V35.0703C0.127991 35.8186 0.767991 36.4421 1.53599 36.4421" fill="white"/>
<path id="Vector_3" d="M70.5536 23.3471C70.5536 23.2223 70.656 23.1226 70.784 23.1226C70.8352 23.1226 70.912 23.1475 70.9376 23.1974C70.9888 23.2473 84.0704 35.9185 84.1984 36.0432C84.2752 36.118 84.608 36.4423 85.1712 36.4423H101.99C102.758 36.4423 103.398 35.8437 103.398 35.0704V24.1702C103.398 23.4219 102.758 22.7983 101.99 22.7983H89.856C89.3184 22.7983 88.96 22.499 88.8832 22.4242C88.704 22.2496 80.1024 13.8935 80.0512 13.8686C80 13.8187 79.9744 13.7688 79.9744 13.7189C79.9744 13.6441 80 13.5942 80.0512 13.5693C80.1024 13.5194 84.096 9.65318 84.1728 9.57835C84.4032 9.35386 84.7616 9.17926 85.1712 9.17926H97.3312C98.0992 9.17926 98.7392 8.58062 98.7392 7.80738V1.44683C98.7392 0.69853 98.0992 0.0749512 97.3312 0.0749512H85.1968C84.6336 0.0749512 84.3008 0.399212 84.224 0.474042C84.1472 0.548872 71.0144 13.27 70.9632 13.3198C70.912 13.3697 70.8608 13.3947 70.8096 13.3947C70.6816 13.3947 70.5792 13.2949 70.5792 13.1702V1.47177C70.5792 0.723475 69.9392 0.0998922 69.1712 0.0998922H55.552C54.784 0.0998922 54.144 0.698532 54.144 1.47177V12.372C54.144 13.1203 54.784 13.7439 55.552 13.7439C56.064 13.7439 56.4992 14.143 56.4992 14.6418V21.9253C56.4992 22.4242 56.0896 22.8233 55.552 22.8233C54.784 22.8233 54.144 23.4219 54.144 24.1951V35.0954C54.144 35.8437 54.784 36.4673 55.552 36.4673H69.1712C69.9392 36.4673 70.5792 35.8437 70.5792 35.0954" fill="white"/>
<path id="Vector_4" d="M125.491 36.4172C126.259 36.4172 126.899 35.8185 126.899 35.0453V24.145C126.899 23.3967 126.259 22.7732 125.491 22.7732C124.979 22.7732 124.544 22.3741 124.544 21.8752V19.1564C124.544 18.6575 124.979 18.2335 125.491 18.2335H130.637C131.149 18.2335 131.584 18.6326 131.584 19.1564C131.584 19.9047 132.224 20.5283 132.992 20.5283H144.282C145.05 20.5283 145.69 19.9296 145.69 19.1564V12.7958C145.69 12.0475 145.05 11.424 144.282 11.424H132.992C132.224 11.424 131.584 12.0226 131.584 12.7958C131.584 13.2947 131.174 13.6938 130.637 13.6938H125.491C124.979 13.6938 124.544 13.2947 124.544 12.7958V5.51239C124.544 5.01353 124.979 4.61443 125.491 4.61443H140.032C140.544 4.61443 140.979 5.01353 140.979 5.51239V7.78224C140.979 8.53054 141.619 9.15412 142.387 9.15412H158.362C159.13 9.15412 159.77 8.55548 159.77 7.78224V1.42169C159.77 0.673391 159.13 0.0498047 158.362 0.0498047H111.872C111.104 0.0498047 110.464 0.648448 110.464 1.42169V12.3219C110.464 13.0702 111.104 13.6938 111.872 13.6938C112.384 13.6938 112.819 14.0929 112.819 14.5918V21.8752C112.819 22.3741 112.41 22.7732 111.872 22.7732C111.104 22.7732 110.464 23.3718 110.464 24.145V35.0453C110.464 35.7936 111.104 36.4172 111.872 36.4172" fill="white"/>
</g>
<defs>
<clipPath id="clip0_1113_21829">
<rect width="160" height="36.6667" fill="white"/>
</clipPath>
</defs>
</svg>
