<svg width="24" height="24" viewBox="0 0 24 24" fill="none" xmlns="http://www.w3.org/2000/svg">
<g id="linkedin">
<mask id="mask0_1043_57283" style="mask-type:alpha" maskUnits="userSpaceOnUse" x="0" y="0" width="24" height="24">
<rect id="bounding-box" width="24" height="24" fill="#D9D9D9"/>
</mask>
<g mask="url(#mask0_1043_57283)">
<path id="linkedin_2" fill-rule="evenodd" clip-rule="evenodd" d="M17.9888 17.9888H15.4332V13.5542C15.4332 12.2458 14.8771 11.8423 14.1596 11.8423C13.4014 11.8423 12.6578 12.4131 12.6578 13.5869V17.9888H10.1021V9.86957H12.5599V10.9945H12.5925C12.8398 10.4947 13.703 9.64137 15.0217 9.64137C16.4477 9.64137 17.9888 10.4872 17.9888 12.9673V17.9888ZM7.28901 8.73836C6.47515 8.73836 5.81548 8.11904 5.81548 7.2714C5.81548 6.42376 6.47515 5.80374 7.28901 5.80374C8.10274 5.80374 8.76242 6.42376 8.76242 7.2714C8.76242 8.11904 8.10274 8.73836 7.28901 8.73836ZM6.01121 17.9826H8.56692V9.86343H6.01121V17.9826ZM19.2451 3.5H4.7549C4.06181 3.5 3.5 4.06183 3.5 4.75493V19.2451C3.5 19.9382 4.06181 20.5 4.7549 20.5H19.2451C19.9382 20.5 20.5 19.9382 20.5 19.2451V4.75493C20.5 4.06183 19.9382 3.5 19.2451 3.5Z" fill="white"/>
</g>
</g>
</svg>
