<svg width="24" height="24" viewBox="0 0 24 24" fill="none" xmlns="http://www.w3.org/2000/svg">
<g id="instagram">
<mask id="mask0_1043_56695" style="mask-type:alpha" maskUnits="userSpaceOnUse" x="0" y="0" width="24" height="24">
<rect id="bounding-box" width="24" height="24" fill="#D9D9D9"/>
</mask>
<g mask="url(#mask0_1043_56695)">
<path id="instagram_2" d="M8.4797 3.55945C7.5753 3.60212 6.95768 3.74645 6.41775 3.95861C5.85896 4.17638 5.38533 4.46861 4.91409 4.94155C4.44284 5.41449 4.15265 5.88846 3.93641 6.4481C3.72714 6.98921 3.58535 7.60733 3.5454 8.51224C3.50545 9.41716 3.49661 9.70803 3.50103 12.0163C3.50545 14.3246 3.51565 14.6139 3.55951 15.5207C3.60269 16.4249 3.74652 17.0424 3.95868 17.5825C4.17679 18.1412 4.46868 18.6147 4.9418 19.0861C5.41491 19.5575 5.88854 19.847 6.44954 20.0636C6.99015 20.2725 7.60845 20.415 8.5132 20.4546C9.41794 20.4942 9.70916 20.5034 12.0168 20.499C14.3244 20.4946 14.6149 20.4844 15.5215 20.4414C16.4281 20.3983 17.0424 20.2535 17.5826 20.0424C18.1414 19.8237 18.6152 19.5324 19.0863 19.0591C19.5574 18.5858 19.8474 18.1115 20.0635 17.5515C20.2729 17.0109 20.4152 16.3926 20.4545 15.4886C20.4941 14.5813 20.5034 14.2916 20.499 11.9837C20.4946 9.67573 20.4842 9.38639 20.4412 8.47994C20.3982 7.5735 20.2542 6.95793 20.0422 6.4175C19.8237 5.85871 19.5322 5.38559 19.0593 4.91384C18.5863 4.44209 18.1117 4.15224 17.5518 3.93668C17.0109 3.72741 16.3929 3.58478 15.4882 3.54568C14.5834 3.50658 14.2922 3.49655 11.9838 3.50097C9.67533 3.50539 9.38632 3.51525 8.4797 3.55945ZM8.57899 18.9255C7.75023 18.8894 7.30023 18.7517 7.00035 18.6365C6.60322 18.4835 6.32034 18.2985 6.02148 18.0025C5.72262 17.7066 5.53901 17.4227 5.38397 17.0264C5.26752 16.7265 5.12727 16.277 5.08851 15.4483C5.04635 14.5525 5.03751 14.2836 5.03258 12.0143C5.02765 9.74492 5.03632 9.47632 5.07559 8.58024C5.11095 7.75217 5.2495 7.30167 5.36459 7.00196C5.51759 6.60433 5.70188 6.32196 5.99853 6.02327C6.29518 5.72457 6.57823 5.54063 6.97485 5.38559C7.27439 5.26863 7.72388 5.12957 8.5523 5.09013C9.44871 5.04763 9.71732 5.03913 11.9863 5.0342C14.2553 5.02927 14.5246 5.03777 15.4214 5.07721C16.2495 5.11325 16.7001 5.25044 16.9995 5.36621C17.3968 5.51921 17.6795 5.70298 17.9782 6.00015C18.2769 6.29731 18.461 6.57934 18.6161 6.9768C18.7332 7.27549 18.8722 7.7248 18.9113 8.55372C18.954 9.45014 18.9637 9.71891 18.9678 11.9877C18.9719 14.2566 18.9639 14.526 18.9246 15.4217C18.8884 16.2505 18.751 16.7007 18.6356 17.0009C18.4826 17.3978 18.2982 17.6809 18.0013 17.9794C17.7045 18.2779 17.4218 18.4619 17.025 18.6169C16.7258 18.7337 16.2758 18.8731 15.4481 18.9125C14.5517 18.9547 14.2831 18.9635 12.0132 18.9685C9.74333 18.9734 9.47557 18.9642 8.57916 18.9255M15.5084 7.45705C15.5088 7.6588 15.5689 7.85592 15.6813 8.02348C15.7937 8.19104 15.9532 8.32151 16.1397 8.39839C16.3263 8.47527 16.5314 8.49511 16.7292 8.45539C16.927 8.41568 17.1086 8.3182 17.251 8.17528C17.3934 8.03235 17.4902 7.85041 17.5292 7.65247C17.5682 7.45452 17.5476 7.24945 17.4701 7.06321C17.3925 6.87696 17.2614 6.7179 17.0935 6.60614C16.9255 6.49438 16.7281 6.43494 16.5264 6.43535C16.2559 6.43589 15.9968 6.54382 15.8059 6.73542C15.615 6.92702 15.508 7.18659 15.5084 7.45705ZM7.63565 12.0085C7.64041 14.4191 9.59815 16.3688 12.0083 16.3642C14.4184 16.3596 16.3695 14.4021 16.3649 11.9915C16.3603 9.58087 14.4021 7.63062 11.9916 7.63538C9.58115 7.64014 7.63106 9.59821 7.63565 12.0085ZM9.16668 12.0054C9.16557 11.445 9.33067 10.8969 9.64108 10.4303C9.9515 9.96376 10.3933 9.59972 10.9106 9.38424C11.4279 9.16877 11.9975 9.11153 12.5474 9.21977C13.0972 9.32801 13.6026 9.59686 13.9997 9.99233C14.3967 10.3878 14.6676 10.8921 14.778 11.4415C14.8884 11.9909 14.8334 12.5608 14.62 13.0789C14.4065 13.5971 14.0443 14.0403 13.5789 14.3526C13.1136 14.6648 12.5661 14.8321 12.0057 14.8332C11.6336 14.834 11.265 14.7615 10.9209 14.6198C10.5769 14.4781 10.2641 14.27 10.0004 14.0074C9.7368 13.7448 9.52747 13.4328 9.38442 13.0893C9.24136 12.7458 9.16737 12.3775 9.16668 12.0054Z" fill="white"/>
</g>
</g>
</svg>
