<svg width="24" height="24" viewBox="0 0 24 24" fill="none" xmlns="http://www.w3.org/2000/svg">
<g id="Social Icons">
<path id="Subtract" fill-rule="evenodd" clip-rule="evenodd" d="M20.9356 6.07388C21.2459 6.38618 21.4687 6.77451 21.5818 7.2C22 8.77045 22 12.0455 22 12.0455C22 12.0455 22 15.3205 21.5818 16.8909C21.4687 17.3164 21.2459 17.7047 20.9356 18.017C20.6253 18.3293 20.2384 18.5547 19.8136 18.6705C18.25 19.0909 12 19.0909 12 19.0909C12 19.0909 5.75 19.0909 4.18636 18.6705C3.76161 18.5547 3.37472 18.3293 3.06441 18.017C2.7541 17.7047 2.53125 17.3164 2.41818 16.8909C2 15.3205 2 12.0455 2 12.0455C2 12.0455 2 8.77045 2.41818 7.2C2.53125 6.77451 2.7541 6.38618 3.06441 6.07388C3.37472 5.76158 3.76161 5.53625 4.18636 5.42045C5.75 5 12 5 12 5C12 5 18.25 5 19.8136 5.42045C20.2384 5.53625 20.6253 5.76158 20.9356 6.07388ZM15.1818 12.0455L9.95455 9.07159V15.0193L15.1818 12.0455Z" fill="white"/>
</g>
</svg>
